<?xml version="1.0" encoding="utf-8"?>
<!-- Generator: Adobe Illustrator 26.0.1, SVG Export Plug-In . SVG Version: 6.00 Build 0)  -->
<svg version="1.1" id="Calque_2" xmlns="http://www.w3.org/2000/svg" xmlns:xlink="http://www.w3.org/1999/xlink" x="0px" y="0px"
	 viewBox="0 0 2000 2000" style="enable-background:new 0 0 2000 2000;" xml:space="preserve">
<style type="text/css">
	.st0{fill:#FFFFFF;}
</style>
<g>
	<path class="st0" d="M441-19.8c179.59,136.87,358.69,275.04,546.71,400.24c12.89,8.14,26.37,16.96,39.6,24.59
		c33.93,19.59,68.66,38.85,96.06,67.53c10.92,11.91,21.02,26.15,21.82,43.1c0.85,26.2-22.45,44.18-42.77,56.19
		c-48.02,26.92-101.91,41.03-154.26,56.56c-59.74,17.16-120.26,32.53-178.37,54.38c-28.85,10.81-56.59,24.09-81.82,41.77
		c-23.48,16.26-45.17,35.81-63.68,57.57c-57.09,66.57-83.69,151.52-83.72,238.52c0.28,161.89,78.69,317.09,166.56,449.19
		c139.85,205.75,319.81,380.56,507.44,542.61c0,0-16.34,18.92-16.34,18.92c-152.81-133.67-299.01-276.52-424.37-436.72
		c-18.51-24.23-38.54-50.55-55.83-75.59c-98.58-141.49-188.77-310.61-192.17-486.67c-1.2-92.47,25.05-182.44,85.13-253.87
		c20.3-24.21,44.22-45.87,70.35-63.62c26.04-17.94,55.02-31.55,84.61-42.35c58.83-21.56,119.53-36.43,179.69-53.17
		c51.97-14.96,105.16-28.35,152.77-54.45c18.15-10.75,39.69-25.86,39.38-49.02c-1.5-28.2-33.19-52.81-54.4-68.59
		c-18.78-13.7-39.09-25.28-59.14-37.08c-13.25-7.77-26.73-16.75-39.61-25.07C797.53,258.34,619.54,118.64,441-19.8L441-19.8z"/>
</g>
</svg>
